<svg xmlns="http://www.w3.org/2000/svg" width="1440" height="960" viewBox="0 0 1440 960" role="img" aria-label="SEAL Hackathon auditorium visual">
  <defs>
    <linearGradient id="bg" x1="0" x2="1" y1="0" y2="1">
      <stop offset="0" stop-color="#071A2F"/>
      <stop offset=".52" stop-color="#143A5B"/>
      <stop offset="1" stop-color="#F37021"/>
    </linearGradient>
    <linearGradient id="stage" x1="0" x2="1">
      <stop offset="0" stop-color="#78F24B"/>
      <stop offset="1" stop-color="#20B86F"/>
    </linearGradient>
    <filter id="shadow" x="-20%" y="-20%" width="140%" height="140%">
      <feDropShadow dx="0" dy="20" stdDeviation="20" flood-color="#061322" flood-opacity=".35"/>
    </filter>
  </defs>
  <rect width="1440" height="960" fill="url(#bg)"/>
  <path d="M0 0h1440v190H0z" fill="#fff" opacity=".07"/>
  <g opacity=".12" stroke="#fff">
    <path d="M0 120h1440M0 240h1440M0 360h1440M0 480h1440M0 600h1440M0 720h1440M0 840h1440"/>
    <path d="M120 0v960M240 0v960M360 0v960M480 0v960M600 0v960M720 0v960M840 0v960M960 0v960M1080 0v960M1200 0v960M1320 0v960"/>
  </g>
  <g filter="url(#shadow)">
    <rect x="205" y="170" width="1030" height="410" rx="36" fill="url(#stage)"/>
    <text x="720" y="330" text-anchor="middle" font-family="Inter, Arial, sans-serif" font-size="78" font-weight="900" fill="#fff">SEAL HACKATHON</text>
    <text x="720" y="405" text-anchor="middle" font-family="Inter, Arial, sans-serif" font-size="34" font-weight="800" fill="#071A2F">Software Engineering Agile League</text>
    <rect x="520" y="448" width="400" height="42" rx="21" fill="#fff" opacity=".9"/>
    <text x="720" y="477" text-anchor="middle" font-family="Inter, Arial, sans-serif" font-size="22" font-weight="800" fill="#F37021">Spring • Summer • Fall</text>
  </g>
  <g transform="translate(120 650)">
    <rect x="0" y="70" width="1200" height="110" rx="22" fill="#fff" opacity=".18"/>
    <g fill="#fff">
      <circle cx="70" cy="32" r="28"/><rect x="36" y="70" width="68" height="86" rx="24"/>
      <circle cx="170" cy="32" r="28"/><rect x="136" y="70" width="68" height="86" rx="24"/>
      <circle cx="270" cy="32" r="28"/><rect x="236" y="70" width="68" height="86" rx="24"/>
      <circle cx="370" cy="32" r="28"/><rect x="336" y="70" width="68" height="86" rx="24"/>
      <circle cx="470" cy="32" r="28"/><rect x="436" y="70" width="68" height="86" rx="24"/>
      <circle cx="570" cy="32" r="28"/><rect x="536" y="70" width="68" height="86" rx="24"/>
      <circle cx="670" cy="32" r="28"/><rect x="636" y="70" width="68" height="86" rx="24"/>
      <circle cx="770" cy="32" r="28"/><rect x="736" y="70" width="68" height="86" rx="24"/>
      <circle cx="870" cy="32" r="28"/><rect x="836" y="70" width="68" height="86" rx="24"/>
      <circle cx="970" cy="32" r="28"/><rect x="936" y="70" width="68" height="86" rx="24"/>
      <circle cx="1070" cy="32" r="28"/><rect x="1036" y="70" width="68" height="86" rx="24"/>
    </g>
  </g>
</svg>
